<?xml version="1.0" encoding="utf-8"?>
<!-- Generator: Adobe Illustrator 16.0.0, SVG Export Plug-In . SVG Version: 6.00 Build 0)  -->
<!DOCTYPE svg PUBLIC "-//W3C//DTD SVG 1.1//EN" "http://www.w3.org/Graphics/SVG/1.1/DTD/svg11.dtd">
<svg version="1.1" xmlns="http://www.w3.org/2000/svg" xmlns:xlink="http://www.w3.org/1999/xlink" x="0px" y="0px" width="360px"
	 height="360px" viewBox="-130 -141.482 360 360" enable-background="new -130 -141.482 360 360" xml:space="preserve">
<g id="Layer_2">
	<path fill="#6ED9B1" d="M222,38.518c0,94.992-77.004,171.999-172.001,171.999c-94.993,0-172-77.007-172-171.999
		c0-94.993,77.006-172,172-172C144.996-133.481,222-56.475,222,38.518z"/>
	<g>
		<g id="XMLID_1_">
			<g>
				<path fill="#44AC86" d="M212,96.519c-19.833,55.167-72.666,105.5-144.85,113.149L-52,128.018
					c1.45,0.56,40.833-32.667,40.833-32.667c7.03,0-43.819-24.993-39.333-30.333c7-8.333,3.5-26.49,3.5-26.5
					c0,3.979,18.5-11.79,18.5-22l15-10c0,0,26.289-58.473,85-40.5c24.5,7.5,54.12,50.83,42,39.5L212,96.519z"/>
			</g>
			<g>
			</g>
		</g>
	</g>
</g>
<g id="Layer_3" display="none">
	<path display="inline" opacity="0.7" fill="#4ABD92" d="M222,38.518c0,94.992-77.004,171.999-172.001,171.999
		c-94.993,0-172-77.007-172-171.999c0-94.993,77.006-172,172-172C144.996-133.481,222-56.475,222,38.518z"/>
	<g display="inline">
		<g id="XMLID_2_">
			<g>
				<path fill="#44AC86" d="M212,96.519c-19.833,55.167-72.666,105.5-144.85,113.149L-59.5,106.936
					c1.45,0.56,48.333-11.585,48.333-11.585c7.03,0,84.181,46.34,88.667,41c7-8.333,10.666-13.323,10.666-13.333
					c0,3.979,37.834,8.71,37.834-1.5l-52.5-52c0,0,32.5,0,29-17.5c-2.929-14.645,26.62-36.17,14.5-47.5L212,96.519z"/>
			</g>
			<g>
			</g>
		</g>
	</g>
</g>
<g id="Layer_1">
	<circle fill="#FFFFFF" cx="50" cy="-44.303" r="7.312"/>
	<circle fill="#FFFFFF" cx="26.649" cy="-40.027" r="7.312"/>
	<circle fill="#FFFFFF" cx="6.212" cy="-28.22" r="7.312"/>
	<circle fill="#FFFFFF" cx="-8.96" cy="-10.139" r="7.312"/>
	<path fill="#FFFFFF" d="M39.868,73.137c0-0.009-0.004-0.012-0.009-0.022l-9.411-23.537C29.864,23.197,8.266,1.903-18.251,1.903
		C-45.127,1.905-67,23.777-67,50.656c0,13.599,5.611,25.9,14.625,34.755v43.242h58.5v-16.961c13.439,0,21.938-8.601,21.938-22.042
		v-9.749h7.312c2.693,0,4.874-2.182,4.874-4.876C40.249,74.423,39.868,73.137,39.868,73.137z M-37.75,70.158
		c-4.037,0-7.312-3.277-7.312-7.312c0-4.04,3.276-7.312,7.312-7.312s7.312,3.272,7.312,7.312
		C-30.438,66.88-33.713,70.158-37.75,70.158z M-37.75,50.656c-4.037,0-7.312-3.274-7.312-7.312s3.276-7.313,7.312-7.313
		s7.312,3.273,7.312,7.313C-30.438,47.381-33.713,50.656-37.75,50.656z M-18.251,70.158c-4.039,0-7.312-3.277-7.312-7.312
		c0-4.04,3.273-7.312,7.312-7.312c4.037,0,7.312,3.272,7.312,7.312C-10.938,66.88-14.212,70.158-18.251,70.158z M-18.251,50.656
		c-4.039,0-7.312-3.274-7.312-7.312s3.273-7.313,7.312-7.313c4.037,0,7.312,3.273,7.312,7.313
		C-10.938,47.381-14.212,50.656-18.251,50.656z M-18.251,31.155c-4.039,0-7.312-3.275-7.312-7.312c0-4.037,3.273-7.312,7.312-7.312
		c4.037,0,7.312,3.276,7.312,7.312C-10.938,27.88-14.212,31.155-18.251,31.155z M1.251,70.158c-4.037,0-7.312-3.277-7.312-7.312
		c0-4.04,3.275-7.312,7.312-7.312c4.039,0,7.312,3.272,7.312,7.312C8.563,66.88,5.288,70.158,1.251,70.158z M1.251,50.656
		c-4.037,0-7.312-3.274-7.312-7.312s3.275-7.313,7.312-7.313c4.039,0,7.312,3.273,7.312,7.313
		C8.563,47.381,5.288,50.656,1.251,50.656z"/>
	<circle fill="#FFFFFF" cx="73.062" cy="-40.027" r="7.312"/>
	<circle fill="#FFFFFF" cx="93.5" cy="-28.22" r="7.312"/>
	<circle fill="#FFFFFF" cx="108.672" cy="-10.139" r="7.312"/>
	<path fill="#FFFFFF" d="M118.251,1.905c-26.52,0-48.114,21.294-48.699,47.672l-9.41,23.539c-0.005,0.012-0.012,0.014-0.012,0.022
		c0,0-0.379,1.287-0.379,1.886c0,2.694,2.183,4.876,4.874,4.876h7.312v9.749c0,13.441,8.498,22.042,21.938,22.042v16.961h58.5
		V85.411C161.388,76.558,167,64.257,167,50.656C167,23.777,145.127,1.905,118.251,1.905z M118.251,70.158
		c-4.038,0-7.312-3.277-7.312-7.312c0-4.04,3.274-7.312,7.312-7.312s7.312,3.272,7.312,7.312
		C125.563,66.88,122.289,70.158,118.251,70.158z M118.251,50.656c-4.038,0-7.312-3.274-7.312-7.312s3.274-7.313,7.312-7.313
		s7.312,3.273,7.312,7.313C125.563,47.381,122.289,50.656,118.251,50.656z M118.251,31.155c-4.038,0-7.312-3.275-7.312-7.312
		c0-4.037,3.274-7.312,7.312-7.312s7.312,3.276,7.312,7.312C125.563,27.88,122.289,31.155,118.251,31.155z"/>
</g>
</svg>
