<?xml version="1.0" encoding="utf-8"?>
<!-- Generator: Adobe Illustrator 16.0.0, SVG Export Plug-In . SVG Version: 6.00 Build 0)  -->
<!DOCTYPE svg PUBLIC "-//W3C//DTD SVG 1.1//EN" "http://www.w3.org/Graphics/SVG/1.1/DTD/svg11.dtd">
<svg version="1.1" xmlns="http://www.w3.org/2000/svg" xmlns:xlink="http://www.w3.org/1999/xlink" x="0px" y="0px" width="360px"
	 height="360px" viewBox="-130 -130 360 360" enable-background="new -130 -130 360 360" xml:space="preserve">
<g id="Layer_2">
	<circle fill="#64C2A5" cx="50" cy="50" r="162"/>
</g>
<g id="Layer_1">
	<path fill="#FFF7CC" d="M134.382,124.609c-6.598-2.817-13.497-4.344-20.255-6.616c-9.012-3.024-17.773-6.737-26.029-11.442
		c-9.062-5.163-19.25-8.22-28.867-12.168c-0.003,0,1.784,2.207,4.576,5.062c0.707,0.707,1.505,1.437,2.32,2.209
		c0.845,0.746,1.763,1.486,2.702,2.232c0.949,0.737,1.972,1.426,3.042,2.064c0.513,0.348,1.066,0.639,1.619,0.922
		c0.552,0.298,1.095,0.606,1.684,0.824c1.103,0.553,2.348,0.917,3.429,1.318c1.308,0.341,2.572,0.774,3.723,1.04
		c2.365,0.599,4.619,1.065,6.527,1.254c0.927,0.045,1.828,0.104,2.485-0.041c0.672-0.175,1.036-0.254,1.013-0.63
		c-0.084-0.407-0.394-0.845-0.611-1.051c-0.228-0.236-0.353-0.36-0.353-0.36s0.168,0.056,0.485,0.159
		c0.163,0.047,0.36,0.128,0.581,0.27c0.237,0.107,0.476,0.322,0.71,0.652c0.086,0.18,0.172,0.429,0.192,0.686
		c-0.043,0.231-0.062,0.602-0.228,0.781c-0.278,0.498-0.708,0.78-1.14,1.046c-0.876,0.528-1.879,0.785-2.985,0.999
		c-1.093,0.189-2.287,0.315-3.526,0.284c-1.247,0-2.533-0.059-3.877-0.256c-1.376-0.191-2.684-0.396-3.988-0.692
		c-1.496-0.404-2.868-0.819-4.237-1.458c-0.694-0.278-1.333-0.659-1.977-1.02c-0.66-0.336-1.27-0.745-1.857-1.173
		c-1.209-0.801-2.251-1.783-3.244-2.718c-0.993-0.932-1.816-1.963-2.58-2.935c-0.755-0.978-1.376-1.967-1.906-2.891
		c-2.133-3.722-2.571-6.57-2.571-6.57c-2.319-0.952-3.315-4.876-4.206-7.033c-5.565-13.449-9.605-27.599-13.705-41.545
		c-3.675-12.483-7.183-25.012-10.674-37.546c-3.47-12.441-9.051-24.244-14.929-35.717C10.392-37.868,4.718-48.537-2.594-57.725
		c0,0-38.337,17.317-39.885,46.995c0,0-3.092-1.235,0.931,8.659l10.202,28.133c0,0,7.109,20.713,7.419,38.337l1.236,42.048v37.401
		h4.635l7.421-73.273c0,0,2.474-25.042,14.843-27.209c0,0,4.945-4.018,8.037,15.147c3.393,18,5.268,36.522,9.324,54.333
		c1.984,8.73,6.439,17.739,11.356,25.127c8.882,13.338,26.175,18.994,41.293,19.618c15.259,0.631,31.929-0.877,46.108-6.84
		c5.099-2.147,27.662-12.963,22.542-20.582C141.068,127.501,137.193,125.811,134.382,124.609z M-0.29,32.449
		c-2.385-2.217-5.085-4.861-7.91-7.759c-2.767-2.947-5.961-5.862-9.027-8.898c-1.511-1.539-3.024-3.078-4.515-4.595
		c-1.5-1.504-2.896-3.065-4.295-4.534c-2.837-2.881-5.477-5.587-7.665-8c-2.2-2.396-3.992-4.458-5.278-5.875
		C-40.244-8.647-40.94-9.5-40.94-9.5s0.936,0.576,2.527,1.631c1.606,1.043,3.815,2.628,6.384,4.658
		c1.291,1.004,2.692,2.09,4.132,3.29c1.443,1.196,3.011,2.413,4.524,3.79c1.485,1.396,3.065,2.793,4.594,4.297
		c1.534,1.495,3.1,3.01,4.661,4.527c1.524,1.552,3.052,3.104,4.554,4.631c1.553,1.48,2.853,3.158,4.176,4.712
		c2.625,3.137,5.005,6.124,6.977,8.737c3.981,5.19,6.318,8.884,6.318,8.884S4.439,36.917-0.29,32.449z"/>
</g>
</svg>
