<?xml version="1.0" encoding="utf-8"?>
<!-- Generator: Adobe Illustrator 16.0.0, SVG Export Plug-In . SVG Version: 6.00 Build 0)  -->
<!DOCTYPE svg PUBLIC "-//W3C//DTD SVG 1.1//EN" "http://www.w3.org/Graphics/SVG/1.1/DTD/svg11.dtd">
<svg version="1.1" xmlns="http://www.w3.org/2000/svg" xmlns:xlink="http://www.w3.org/1999/xlink" x="0px" y="0px" width="360px"
	 height="360px" viewBox="-130 -130 360 360" enable-background="new -130 -130 360 360" xml:space="preserve">
<g id="Layer_4">
	<path fill="#6ED9B1" d="M222,50c0,94.99-77,172-172,172c-94.99,0-172-77.01-172-172s77.01-172,172-172C145-122,222-44.99,222,50z"
		/>
</g>
<g id="Layer_2_1_" display="none">
	<line display="inline" fill="none" stroke="#000000" stroke-miterlimit="10" x1="-56.166" y1="129.5" x2="55.25" y2="222.62"/>
	<line display="inline" fill="none" stroke="#000000" stroke-miterlimit="10" x1="61.834" y1="-25.5" x2="214.683" y2="102.25"/>
</g>
<g id="Layer_3" display="none">
	<g id="XMLID_1_" display="inline">
		<g>
			<path fill="#6ED9B1" d="M222,50c0,13.29-1.51,26.23-4.36,38.66L170.83,44.8c-0.34-1.13-1.14-2.3-2.44-3.61l-19.47-19.65H34.82
				C25.06,4.35,6.76-7.25-14.26-7.2C-45.57-7.27-70.93,18.35-71,49.91c0.05,22.42,12.81,41.82,31.38,51.229L98.61,215.03
				C83.2,219.57,66.88,222,50,222c-94.99,0-172-77.01-172-172s77.01-172,172-172C145-122,222-44.99,222,50z"/>
			<path fill="#44AC86" d="M170.83,44.8l46.81,43.86C203.72,149.25,157.8,197.63,98.61,215.03L-39.62,101.14
				c7.63,3.87,16.24,6.051,25.36,6.061c20.96-0.03,39.22-11.601,49-28.74h22.95l18.17-18.17L89.77,74.2L103.12,60.85l13.72,13.71
				l13.91-13.899l13.91,13.899L168.4,50.83C170.56,48.58,171.39,46.74,170.83,44.8z"/>
			<path fill="#44AC86" d="M170.83,44.8c0.56,1.94-0.271,3.78-2.43,6.03L144.66,74.56L130.75,60.66L116.84,74.56l-13.72-13.71
				L89.77,74.2L75.86,60.29L57.69,78.46H34.74c-9.78,17.14-28.04,28.71-49,28.74c-9.12-0.01-17.73-2.19-25.36-6.061
				C-58.19,91.73-70.95,72.33-71,49.91C-70.93,18.35-45.57-7.27-14.26-7.2C6.76-7.25,25.06,4.35,34.82,21.54h114.1l19.47,19.65
				C169.69,42.5,170.49,43.67,170.83,44.8z M-39.1,64.93c8.23-0.08,14.96-6.89,15.02-15.209c-0.06-8.44-6.79-15.25-15.02-15.2
				c-8.37-0.04-15.1,6.76-15.02,15.2C-54.2,58.04-47.47,64.86-39.1,64.93z"/>
			<path fill="#44AC86" d="M-24.08,49.72c-0.06,8.32-6.79,15.129-15.02,15.209c-8.37-0.069-15.1-6.89-15.02-15.209
				c-0.08-8.44,6.65-15.24,15.02-15.2C-30.87,34.47-24.14,41.28-24.08,49.72z"/>
		</g>
		<g>
		</g>
	</g>
	<path display="inline" fill="#FFFFFF" d="M168.394,41.194l-19.479-19.655H34.819C25.064,4.354,6.757-7.248-14.261-7.203
		C-45.573-7.267-70.93,18.351-71,49.908c0.07,31.63,25.427,57.246,56.739,57.295c20.96-0.035,39.226-11.599,48.998-28.74h22.949
		L75.863,60.29l13.91,13.912l13.351-13.354l13.719,13.714l13.908-13.9l13.907,13.9l23.737-23.728
		C171.824,47.259,171.912,44.751,168.394,41.194z M-39.104,64.934c-8.368-0.078-15.099-6.889-15.021-15.212
		c-0.078-8.439,6.653-15.243,15.021-15.206c8.23-0.042,14.959,6.766,15.023,15.206C-24.142,58.045-30.872,64.854-39.104,64.934z"/>
</g>
<g id="Layer_5">
	<g>
		<g id="XMLID_2_">
			<g>
				<path fill="#6ED9B1" d="M-55.06,130.43c1.32,1.391,2.87,2.67,4.6,3.84l104.9,87.671C52.96,221.98,51.48,222,50,222
					c-94.99,0-172-77.01-172-172s77.01-172,172-172c95,0,172,77.01,172,172c0,18.03-2.77,35.41-7.92,51.74
					c-5.61-4.73-48.89-41.221-53.32-44.55c-0.13-0.101-0.33-0.25-0.59-0.46c0.12-0.641,0.18-1.301,0.18-1.98
					c0-6.03-4.89-10.92-10.93-10.92h-4.83c-4.42-3.68-9.49-7.92-14.899-12.44V24.1c0-6.04-4.891-10.93-10.931-10.93
					c-2.859,0-5.439,1.09-7.39,2.89C94.23,1.7,77.09-12.69,68.16-20.18C57.93-35.72,40.33-45.99,20.38-45.99
					c-31.53,0-57.17,25.64-57.17,57.17c0,19.26,9.61,36.3,24.25,46.65C-37.37,70.93-60.5,95.3-60.5,117.3
					C-60.5,122.51-58.5,126.84-55.06,130.43z"/>
				<path fill="#44AC86" d="M160.76,57.19c4.431,3.329,47.71,39.819,53.32,44.55c-21.53,68.359-84.61,118.3-159.64,120.2
					l-104.9-87.671c16.21,11.061,48.55,13.11,70.25,13.11c29.99,0,80.29-3.91,80.29-30.08c0-21.92-22.62-46.18-46.99-59.31
					C67.86,47.65,77.55,30.53,77.55,11.18c0-11.57-3.45-22.35-9.39-31.36c8.93,7.49,26.07,21.88,43.21,36.24
					c-2.17,1.99-3.53,4.86-3.53,8.04v19.73H88.11c-6.04,0-10.931,4.89-10.931,10.92c0,6.04,4.891,10.93,10.931,10.93h19.729V85.4
					c0,6.04,4.891,10.93,10.92,10.93c6.04,0,10.931-4.89,10.931-10.93V65.68h19.729c5.36,0,9.82-3.859,10.75-8.949
					C160.43,56.94,160.63,57.09,160.76,57.19z"/>
				<path fill="#6ED9B1" d="M160.35,54.75c0,0.68-0.06,1.34-0.18,1.98c-2.01-1.61-7.78-6.4-15.58-12.9h4.83
					C155.46,43.83,160.35,48.72,160.35,54.75z"/>
				<path fill="#6ED9B1" d="M160.17,56.73c-0.93,5.09-5.39,8.949-10.75,8.949H129.69V85.4c0,6.04-4.891,10.93-10.931,10.93
					c-6.029,0-10.92-4.89-10.92-10.93V65.68H88.11c-6.04,0-10.931-4.89-10.931-10.93c0-6.03,4.891-10.92,10.931-10.92h19.729V24.1
					c0-3.18,1.36-6.05,3.53-8.04c6.24,5.23,12.479,10.45,18.32,15.33v12.44h14.899C152.39,50.33,158.16,55.12,160.17,56.73z"/>
				<path fill="#44AC86" d="M144.59,43.83H129.69V31.39C135.1,35.91,140.17,40.15,144.59,43.83z"/>
				<path fill="#6ED9B1" d="M129.69,24.1v7.29c-5.841-4.88-12.08-10.1-18.32-15.33c1.95-1.8,4.53-2.89,7.39-2.89
					C124.8,13.17,129.69,18.06,129.69,24.1z"/>
				<path fill="#44AC86" d="M68.16-20.18c5.939,9.01,9.39,19.79,9.39,31.36c0,19.35-9.689,36.47-24.46,46.81
					c24.37,13.13,46.99,37.39,46.99,59.31c0,26.17-50.3,30.08-80.29,30.08c-21.7,0-54.04-2.05-70.25-13.11l-4.6-3.84
					c-3.44-3.59-5.44-7.92-5.44-13.13c0-22,23.13-46.37,47.96-59.47c-14.64-10.35-24.25-27.39-24.25-46.65
					c0-31.53,25.64-57.17,57.17-57.17C40.33-45.99,57.93-35.72,68.16-20.18z M19.79,125.52c33.979,0,53.91-5.93,58.37-9.579
					C76.42,98.19,41.46,70.13,20.38,70.13c-19.85,0-57.21,26.88-58.96,45.811C-34.13,119.59-14.2,125.52,19.79,125.52z M55.7,11.18
					c0-19.47-15.85-35.32-35.32-35.32c-19.48,0-35.31,15.85-35.32,35.32c0,19.47,15.84,35.32,35.32,35.32
					C39.85,46.5,55.7,30.65,55.7,11.18z"/>
				<path fill="#44AC86" d="M78.16,115.94c-4.46,3.649-24.391,9.579-58.37,9.579c-33.99,0-53.92-5.93-58.37-9.579
					C-36.83,97.01,0.53,70.13,20.38,70.13C41.46,70.13,76.42,98.19,78.16,115.94z"/>
				<path fill="#44AC86" d="M20.38-24.14c19.47,0,35.32,15.85,35.32,35.32c0,19.47-15.85,35.32-35.32,35.32
					c-19.48,0-35.32-15.85-35.32-35.32C-14.93-8.29,0.9-24.14,20.38-24.14z"/>
				<path fill="#6ED9B1" d="M-55.06,130.43l4.6,3.84C-52.19,133.1-53.74,131.82-55.06,130.43z"/>
			</g>
			<g>
			</g>
		</g>
	</g>
</g>
<g id="Layer_1">
	<g>
		<g id="XMLID_3_">
			<g>
				<path fill="#FFFFFF" d="M53.09,57.99c24.37,13.13,46.99,37.39,46.99,59.31c0,26.17-50.3,30.08-80.29,30.08
					c-29.99,0-80.29-3.91-80.29-30.08c0-22,23.13-46.37,47.96-59.47c-14.64-10.35-24.25-27.39-24.25-46.65
					c0-31.53,25.64-57.17,57.17-57.17c31.521,0,57.17,25.64,57.17,57.17C77.55,30.53,67.86,47.65,53.09,57.99z"/>
				<path fill="#FFFFFF" d="M149.42,43.83c6.04,0,10.93,4.89,10.93,10.92c0,6.04-4.89,10.93-10.93,10.93H129.69V85.4
					c0,6.04-4.891,10.93-10.931,10.93c-6.029,0-10.92-4.89-10.92-10.93V65.68H88.11c-6.04,0-10.931-4.89-10.931-10.93
					c0-6.03,4.891-10.92,10.931-10.92h19.729V24.1c0-6.04,4.891-10.93,10.92-10.93c6.04,0,10.931,4.89,10.931,10.93v19.73H149.42z"
					/>
			</g>
			<g>
			</g>
		</g>
	</g>
</g>
</svg>
