<?xml version="1.0" encoding="utf-8"?>
<!-- Generator: Adobe Illustrator 16.0.0, SVG Export Plug-In . SVG Version: 6.00 Build 0)  -->
<!DOCTYPE svg PUBLIC "-//W3C//DTD SVG 1.1//EN" "http://www.w3.org/Graphics/SVG/1.1/DTD/svg11.dtd">
<svg version="1.1" id="Layer_1" xmlns="http://www.w3.org/2000/svg" xmlns:xlink="http://www.w3.org/1999/xlink" x="0px" y="0px"
	 width="100px" height="100px" viewBox="0 0 100 100" enable-background="new 0 0 100 100" xml:space="preserve">
<path fill="#51D4AD" d="M61.575,65.698c-0.543-0.308-0.078-4.091-0.078-4.091l-4.09-0.463c0-0.23-0.232-3.629-0.232-3.629
	c3.246-1.082,3.91-7.469,3.91-7.469c2.06,1.135,3.397-3.913,3.397-3.913c2.438-7.016-1.211-6.593-1.211-6.593
	c1.16-5.251,0.604-13.001,0.604-13.001c-1.621-14.212-21.117-11.614-24.25-6.833C30.917,21.208,35,35.583,35,35.583l1.16,4.321
	c-3.039,1.955-0.928,4.325-0.824,7.054c0.151,4.026,2.627,3.193,2.627,3.193c0.153,6.644,4.449,7.517,4.449,7.517
	c0.617,4.171,0,3.812,0,3.812h-3.704c0.13,1.057-0.231,3.83-0.231,3.83c-3.457,1.527-4.194,1.424-7.622,2.914
	C24.229,71.109,21.5,72.75,21.5,72.75c-0.26,0.114-0.503,0.24-0.74,0.371c5.977,7.548,14.808,12.725,24.868,13.9h8.745
	C64.539,85.833,73.45,80.559,79.43,72.88c-2.025-1.757-5.268-3.381-9.824-4.551C65.238,67.208,61.575,65.698,61.575,65.698z"/>
<path fill="#51D4AD" d="M50,0C22.386,0,0,22.386,0,50s22.386,50,50,50c27.613,0,50-22.386,50-50S77.613,0,50,0z M50,92
	C26.804,92,8,73.195,8,50C8,26.804,26.804,8,50,8c23.195,0,42,18.804,42,42C92,73.195,73.195,92,50,92z"/>
</svg>
