<?xml version="1.0" encoding="utf-8"?>
<!-- Generator: Adobe Illustrator 16.0.0, SVG Export Plug-In . SVG Version: 6.00 Build 0)  -->
<!DOCTYPE svg PUBLIC "-//W3C//DTD SVG 1.1//EN" "http://www.w3.org/Graphics/SVG/1.1/DTD/svg11.dtd">
<svg version="1.1" id="Layer_1" xmlns="http://www.w3.org/2000/svg" xmlns:xlink="http://www.w3.org/1999/xlink" x="0px" y="0px"
	 width="360px" height="360px" viewBox="0 0 360 360" enable-background="new 0 0 360 360" xml:space="preserve">
<g>
	<g id="Layer_2">
		<circle fill="#64C2A5" cx="180" cy="180" r="162"/>
	</g>
	<g id="Layer_1_1_">
		<path fill="#3C4547" d="M285.422,146.847V84.722l-102.119,6.975l-2.818,56.862c-2.345-0.543-1.635,2.354-1.635,2.354l-1.965,0.935
			c-6.538-0.188-10.365,1.587-10.365,1.587c-3.93-0.561-9.063,1.308-9.063,1.308c-1.022-1.96-3.922-0.839-3.922-0.839v-1.308
			l-1.21-0.935v-2.988c-0.098-4.108-6.725-4.949-6.725-4.949v-2.333l-1.121-0.094l-0.942-7.752l-2.892-0.28
			c-0.275-9.715-13.517-7.439-13.517-7.439c-9.713,0-12.45,9.214-12.45,9.214c-8.847-0.249-8.474,3.487-8.474,3.487l0.509,8.219
			h-2.003c-6.22,0.247-0.614,4.98-0.614,4.98l-0.373,2.986c-7.977,2.617-9.345,11.336-9.345,11.336
			c-1.495-0.374-2.242,1.868-2.242,1.868c-5.855,2.613-9.218,13.82-9.218,13.82l-3.239-14.819l5.604-4.979
			c1.37-3.611-1.742-1.492-1.742-1.492l-4.857,4.231c-2.493-3.234-2.368,1.868-2.368,1.868c-1.493,0.499-1.74,2.119-1.74,2.119
			c0.619,2.492,2.738,1.243,2.738,1.243l2.988,15.195l-1.307,3.171c-4.419,7.845,5.042,12.581,5.042,12.581l5.232,28.08
			c-1.245,2.751,1.06,6.607,1.06,6.607c0.188-1.556,1.62-2.123,1.62-2.123c2.242-2.175,5.107,2.123,5.107,2.123l-0.813-4.545
			c-0.996-4.611-2.923-3.303-2.923-3.303l-6.539-28.77c2.551-0.312,2.676-6.036,2.676-6.036
			c2.551-8.349,10.647-13.765,10.647-13.765l-0.747,10.275c-2.178-0.189-3.362,2.922-3.362,2.922
			c-0.064,3.798,3.799,1.927,3.799,1.927l0.124,6.427c-2.428,1.801-4.359,7.22-4.359,7.22l-0.31,5.229
			c0.124,3.855,2.987,3.303,2.987,3.303c1.432-1.929-1.185-3.558-1.185-3.558c-1.991-3.669,2.304-8.713,2.304-8.713
			c1.993,0.255,2.429-3.176,2.429-3.176c0,1.306,4.042,0.814,4.042,0.814l-1.121,7.471c-4.48,8.595-1.615,12.201-1.615,12.201
			l-0.496,6.854c-1.122,0.748-1.122,9.834-1.122,9.834c-1.99,8.97-0.373,18.06-0.373,18.06c-0.124,1.872-1.746,7.473-1.746,7.473
			c-3.609,1.998-6.225,8.216-4.853,9.845c1.37,1.616,4.857,1.495,4.857,1.495c11.464-0.628,14.451-8.967,14.451-8.967
			c1.122-1.12,3.483-17.936,3.483-17.936c0.867-0.128,1.869-10.834,1.869-10.834c1.495-0.256,1.495-8.849,1.495-8.849
			c2.241-0.377,2.241-6.605,2.241-6.605c1.615,0.51,2.869-10.328,2.869-10.328c1.27-0.133,2.451,8.809,2.451,8.809
			c-0.089,5.421,2.338,8.783,2.338,8.783c-0.276,2.146,1.397,11.114,1.397,11.114c-0.088,5.324,3.185,24.283,3.185,24.283
			l1.024,0.937v3.361c-0.373,5.979,8.219,6.232,8.219,6.232c9.341,1.704,9.153-5.771,9.153-5.771c0-1.193-3.363-7.561-3.363-7.561
			c-0.562-2.615,0.562-6.913,0.562-6.913c1.307-4.481-2.057-25.78-2.057-25.78c1.681,0.189,1.121-3.175,1.121-3.175l2.057-0.188
			l-0.373-17.372l-3.669-0.375c0.493-3.479-1.628-7.594-1.628-7.594c0.256-2.479-0.309-7.815-0.309-7.815l4.014,0.09
			c4.857-0.836-0.373-10.274-0.373-10.274c8.415-6.818-1.302-12.143-1.302-12.143l0.276-2.896
			c24.012,0.655,24.012-3.268,24.012-3.268c3.032,0.184,5.43-0.125,7.249-0.561l-5.41,109.1h1.492l7.048-110.175
			c0.709-0.34,1.104-0.605,1.104-0.605c3.175-0.747,3.552-2.056,3.552-2.056v-7.287c-0.168-2.453-2.193-3.171-3.808-3.354
			l0.068-1.065L285.422,146.847z M145.942,149.73v-4.482c0,0,5.216,0.852,4.977,4.983L145.942,149.73z"/>
	</g>
</g>
</svg>
