<?xml version="1.0" encoding="utf-8"?>
<!-- Generator: Adobe Illustrator 16.0.0, SVG Export Plug-In . SVG Version: 6.00 Build 0)  -->
<!DOCTYPE svg PUBLIC "-//W3C//DTD SVG 1.1//EN" "http://www.w3.org/Graphics/SVG/1.1/DTD/svg11.dtd">
<svg version="1.1" xmlns="http://www.w3.org/2000/svg" xmlns:xlink="http://www.w3.org/1999/xlink" x="0px" y="0px" width="360px"
	 height="360px" viewBox="-130 -134.812 360 360" enable-background="new -130 -134.812 360 360" xml:space="preserve">
<g id="Layer_2">
	<circle fill="#64C2A5" cx="50" cy="45.188" r="162"/>
</g>
<g id="Layer_1">
	<path fill="#FFF7CC" d="M155.422,12.034v-62.125L53.303-43.116l-2.818,56.862c-2.345-0.543-1.635,2.355-1.635,2.355l-1.965,0.934
		c-6.538-0.188-10.365,1.587-10.365,1.587c-3.93-0.56-9.063,1.308-9.063,1.308c-1.022-1.96-3.922-0.839-3.922-0.839v-1.308
		l-1.21-0.934v-2.988C22.227,9.752,15.6,8.911,15.6,8.911V6.578l-1.121-0.093l-0.942-7.752l-2.892-0.281
		C10.37-11.262-2.872-8.987-2.872-8.987c-9.713,0-12.45,9.214-12.45,9.214c-8.847-0.249-8.474,3.487-8.474,3.487l0.509,8.219h-2.003
		c-6.22,0.247-0.614,4.98-0.614,4.98l-0.373,2.987c-7.977,2.617-9.345,11.336-9.345,11.336c-1.495-0.374-2.242,1.868-2.242,1.868
		c-5.855,2.613-9.218,13.82-9.218,13.82l-3.239-14.819l5.604-4.98c1.37-3.611-1.742-1.492-1.742-1.492l-4.857,4.231
		c-2.493-3.234-2.368,1.869-2.368,1.869c-1.493,0.499-1.74,2.119-1.74,2.119c0.619,2.492,2.738,1.243,2.738,1.243l2.988,15.195
		l-1.307,3.171c-4.419,7.845,5.042,12.581,5.042,12.581l5.232,28.08c-1.245,2.751,1.06,6.608,1.06,6.608
		c0.188-1.556,1.62-2.123,1.62-2.123c2.242-2.175,5.107,2.123,5.107,2.123l-0.813-4.545c-0.996-4.612-2.923-3.303-2.923-3.303
		l-6.539-28.769c2.551-0.313,2.676-6.037,2.676-6.037c2.551-8.348,10.647-13.764,10.647-13.764l-0.747,10.275
		c-2.178-0.189-3.362,2.922-3.362,2.922c-0.064,3.798,3.799,1.927,3.799,1.927l0.124,6.427c-2.428,1.8-4.359,7.219-4.359,7.219
		l-0.31,5.229c0.124,3.855,2.987,3.302,2.987,3.302c1.432-1.928-1.185-3.557-1.185-3.557c-1.991-3.669,2.304-8.713,2.304-8.713
		c1.993,0.255,2.429-3.176,2.429-3.176c0,1.306,4.042,0.815,4.042,0.815l-1.121,7.47c-4.48,8.595-1.615,12.202-1.615,12.202
		l-0.496,6.853c-1.122,0.748-1.122,9.834-1.122,9.834c-1.99,8.97-0.373,18.06-0.373,18.06c-0.124,1.872-1.746,7.472-1.746,7.472
		c-3.609,1.998-6.225,8.216-4.853,9.845c1.37,1.616,4.857,1.495,4.857,1.495c11.464-0.628,14.451-8.967,14.451-8.967
		c1.122-1.12,3.483-17.935,3.483-17.935c0.867-0.128,1.869-10.834,1.869-10.834c1.495-0.256,1.495-8.849,1.495-8.849
		c2.241-0.377,2.241-6.605,2.241-6.605c1.615,0.509,2.869-10.328,2.869-10.328c1.27-0.133,2.451,8.808,2.451,8.808
		c-0.089,5.421,2.338,8.783,2.338,8.783c-0.276,2.147,1.397,11.115,1.397,11.115c-0.088,5.324,3.185,24.283,3.185,24.283
		l1.024,0.936v3.362c-0.373,5.978,8.219,6.232,8.219,6.232c9.341,1.704,9.153-5.77,9.153-5.77c0-1.194-3.363-7.561-3.363-7.561
		c-0.562-2.615,0.562-6.913,0.562-6.913c1.307-4.481-2.057-25.78-2.057-25.78c1.681,0.189,1.121-3.175,1.121-3.175l2.057-0.188
		l-0.373-17.372l-3.669-0.375c0.493-3.479-1.628-7.593-1.628-7.593c0.256-2.479-0.309-7.816-0.309-7.816l4.014,0.09
		c4.857-0.836-0.373-10.274-0.373-10.274c8.415-6.819-1.302-12.143-1.302-12.143l0.276-2.896C42.5,33.104,42.5,29.181,42.5,29.181
		c3.032,0.183,5.43-0.125,7.249-0.561l-5.41,109.1h1.492l7.048-110.175c0.709-0.34,1.104-0.605,1.104-0.605
		c3.174-0.747,3.551-2.056,3.551-2.056v-7.287c-0.168-2.453-2.193-3.171-3.807-3.354l0.068-1.065L155.422,12.034z M15.942,14.918
		v-4.482c0,0,5.216,0.851,4.977,4.983L15.942,14.918z"/>
</g>
</svg>
