<?xml version="1.0" encoding="utf-8"?>
<!-- Generator: Adobe Illustrator 16.0.0, SVG Export Plug-In . SVG Version: 6.00 Build 0)  -->
<!DOCTYPE svg PUBLIC "-//W3C//DTD SVG 1.1//EN" "http://www.w3.org/Graphics/SVG/1.1/DTD/svg11.dtd">
<svg version="1.1" xmlns="http://www.w3.org/2000/svg" xmlns:xlink="http://www.w3.org/1999/xlink" x="0px" y="0px" width="360px"
	 height="360px" viewBox="-130 -156.363 360 360" enable-background="new -130 -156.363 360 360" xml:space="preserve">
<g id="Layer_5">
</g>
<g id="Layer_4">
	<g id="XMLID_2_">
		<g>
			<path fill="#6ED9B1" d="M222,23.637c0,13.29-1.51,26.23-4.36,38.66l-46.81-43.86c-0.34-1.13-1.14-2.3-2.44-3.61l-19.47-19.65
				H34.82c-9.76-17.19-28.06-28.79-49.08-28.74c-31.31-0.07-56.67,25.55-56.74,57.11c0.05,22.42,12.81,41.82,31.38,51.229
				L98.61,188.668c-15.41,4.54-31.73,6.97-48.61,6.97c-94.99,0-172-77.01-172-172s77.01-172,172-172
				C145-148.363,222-71.353,222,23.637z"/>
			<path fill="#44AC86" d="M170.83,18.437l46.81,43.86c-13.92,60.59-59.84,108.97-119.029,126.37L-39.62,74.777
				c7.63,3.87,16.24,6.051,25.36,6.061c20.96-0.03,39.22-11.601,49-28.74h22.95l18.17-18.17l13.909,13.91l13.351-13.351l13.72,13.71
				l13.91-13.899l13.91,13.899l23.74-23.729C170.56,22.218,171.39,20.378,170.83,18.437z"/>
			<path fill="#44AC86" d="M170.83,18.437c0.56,1.94-0.271,3.78-2.43,6.03l-23.74,23.729l-13.91-13.899l-13.91,13.899l-13.72-13.71
				L89.77,47.838L75.86,33.927l-18.17,18.17H34.74c-9.78,17.14-28.04,28.71-49,28.74c-9.12-0.01-17.73-2.19-25.36-6.061
				C-58.19,65.368-70.95,45.968-71,23.548c0.07-31.56,25.43-57.18,56.74-57.11c21.02-0.05,39.32,11.55,49.08,28.74h114.1
				l19.47,19.65C169.69,16.137,170.49,17.307,170.83,18.437z M-39.1,38.567c8.23-0.08,14.96-6.89,15.02-15.209
				c-0.06-8.44-6.79-15.25-15.02-15.2c-8.37-0.04-15.1,6.76-15.02,15.2C-54.2,31.677-47.47,38.498-39.1,38.567z"/>
			<path fill="#44AC86" d="M-24.08,23.358c-0.06,8.32-6.79,15.129-15.02,15.209c-8.37-0.069-15.1-6.89-15.02-15.209
				c-0.08-8.44,6.65-15.24,15.02-15.2C-30.87,8.108-24.14,14.917-24.08,23.358z"/>
		</g>
		<g>
		</g>
	</g>
</g>
<g id="Layer_3">
	<path fill="#FFFFFF" d="M168.394,14.832L148.915-4.823H34.819C25.064-22.009,6.757-33.611-14.261-33.566
		C-45.573-33.63-70.93-8.011-71,23.545c0.07,31.63,25.427,57.246,56.739,57.295c20.96-0.035,39.226-11.599,48.998-28.74h22.949
		l18.178-18.173l13.91,13.912l13.351-13.354l13.719,13.714l13.908-13.9l13.907,13.9l23.737-23.728
		C171.824,20.896,171.912,18.388,168.394,14.832z M-39.104,38.571c-8.368-0.078-15.099-6.889-15.021-15.212
		c-0.078-8.439,6.653-15.243,15.021-15.206c8.23-0.042,14.959,6.766,15.023,15.206C-24.142,31.682-30.872,38.491-39.104,38.571z"/>
</g>
</svg>
