<?xml version="1.0" encoding="utf-8"?>
<!-- Generator: Adobe Illustrator 16.0.0, SVG Export Plug-In . SVG Version: 6.00 Build 0)  -->
<!DOCTYPE svg PUBLIC "-//W3C//DTD SVG 1.1//EN" "http://www.w3.org/Graphics/SVG/1.1/DTD/svg11.dtd">
<svg version="1.1" xmlns="http://www.w3.org/2000/svg" xmlns:xlink="http://www.w3.org/1999/xlink" x="0px" y="0px" width="360px"
	 height="360px" viewBox="-130 -130 360 360" enable-background="new -130 -130 360 360" xml:space="preserve">
<g id="Layer_2">
	<circle fill="#64C2A5" cx="50" cy="50" r="162"/>
</g>
<g id="Layer_1">
	<g>
		<path fill="#FFF7CC" d="M163.512,59.896c4.689,0,8.488-3.802,8.488-8.489c0-4.684-3.799-8.486-8.488-8.486
			c-4.685,0-8.484,3.802-8.484,8.486c0,1.029,0.191,2.013,0.531,2.928l-24.776,21.104L99.395,56.974
			c0.178-0.724,0.281-1.48,0.281-2.261c0-5.227-4.234-9.463-9.459-9.463c-2.121,0-4.069,0.706-5.647,1.885L56.208,24.616
			c0.134-0.538,0.21-1.094,0.21-1.669c0-3.858-3.126-6.981-6.98-6.981c-3.856,0-6.981,3.126-6.981,6.981
			c0,1.779,0.671,3.399,1.766,4.631l-14.237,30.47c-0.634-0.109-1.284-0.18-1.952-0.18c-2.098,0-4.056,0.582-5.737,1.578
			l-37.669-16.873c0.088-0.549,0.146-1.108,0.146-1.681c0-5.808-4.707-10.514-10.514-10.514c-5.805,0-10.514,4.706-10.514,10.514
			c0,5.807,4.707,10.514,10.514,10.514c3.299,0,6.237-1.52,8.165-3.894l35.823,16.046c-0.937,1.644-1.481,3.542-1.481,5.571
			c0,2.079,0.715,3.916,1.694,5.588l-20.089,20.1c-2.771-1.98-6.114-3.157-9.767-3.157c-6.447,0-11.993,3.662-14.84,8.988
			l-0.233-0.077c-0.002,0.029-0.01,0.056-0.013,0.084l-28.005-12.727c0.038-0.327,0.061-0.662,0.061-0.998
			c0-4.853-3.934-8.786-8.787-8.786c-4.854,0-8.787,3.934-8.787,8.786c0,4.854,3.933,8.785,8.787,8.785
			c2.571,0,4.878-1.108,6.482-2.869l28.604,13.001c-0.012,0.033-0.021,0.062-0.037,0.09l0.137,0.049
			c-0.131,0.848-0.263,1.691-0.263,2.572c0,4.769,1.984,9.067,5.16,12.139l-0.041,0.033c0.01,0.012,0.019,0.024,0.028,0.033
			l-14.574,21.477c-0.378-0.064-0.766-0.107-1.166-0.107c-3.608,0-6.535,2.924-6.535,6.534c0,3.609,2.926,6.536,6.535,6.536
			c3.609,0,6.534-2.927,6.534-6.536c0-1.22-0.342-2.364-0.927-3.341l13.088-19.286l1.732-2.141c2.151,0.992,4.537,1.563,7.062,1.563
			c4.642,0,8.856-1.88,11.916-4.918l17.062,12.176c-0.485,1.256-0.815,2.588-0.815,4.006c0,6.217,5.039,11.267,11.266,11.267
			c5.268,0,9.674-3.62,10.91-8.497l38.836-12.013c2.383,4.427,7.059,7.443,12.439,7.443c3.106,0,5.971-1.02,8.306-2.721
			l17.371,16.132c-0.091,0.472-0.144,0.958-0.144,1.458c0,4.23,3.433,7.661,7.661,7.661c4.232,0,7.66-3.429,7.66-7.661
			c0-4.229-3.428-7.66-7.66-7.66c-1.725,0-3.314,0.576-4.593,1.541l-16.621-15.431c1.349-2.163,2.181-4.708,2.181-7.439
			c0-6.869-4.054-12.591-11.374-13.854V63.777c2.44-0.42,2.64-1.166,3.692-2.142l32.531,19.149l27.274,38.196
			c-0.224,0.562-0.354,1.175-0.354,1.82c0,2.745,2.221,4.969,4.965,4.969c2.745,0,4.971-2.224,4.971-4.969
			c0-2.744-2.229-4.97-4.973-4.97c-0.074,0-0.147,0.005-0.22,0.009l-26.183-36.647l24.233-20.641
			C160.262,59.4,161.83,59.896,163.512,59.896z M76.096,120.802c0,0.511,0.031,1.015,0.086,1.511l-37.272,11.528
			c-1.273-4.82-5.651-8.383-10.878-8.383c-2.74,0-5.158,1.102-7.108,2.716L3.75,115.922c1.091-2.245,1.75-4.711,1.75-7.363
			c0-3.641-1.188-7.005-3.147-9.757l20.088-20.099c1.674,0.979,3.509,1.693,5.59,1.693c4.007,0,7.514-2.091,9.509-5.238
			l42.022,36.39C77.412,114.03,76.096,117.256,76.096,120.802z M88.123,106.948c-2.438,0.243-2.767,0.668-3.893,1.225L39.431,69.51
			c0.005-0.128-0.056-0.249-0.056-0.377c0-3.623-1.751-6.836-4.407-8.896l14.15-30.324c0.112,0.005,0.214,0.017,0.326,0.017
			c1.293,0,2.496-0.359,3.538-0.974l28.353,22.519c-0.369,1.013-0.274,2.102-0.274,3.241c0,4.286,2.184,7.899,7.062,9.064V106.948z"
			/>
		<path fill="#FFF7CC" d="M94.727-57.457H39.76c-6.234,0-9.994,3.464-9.994,9.992v32.481c0,6.529,3.759,9.994,9.994,9.994
			l9.994-0.08c0,4.65,0,10.417,0,15.067h2.498c4.119-4.869,8.374-10.116,12.493-14.988h29.981c6.236,0.001,9.994-3.463,9.994-9.992
			v-32.481C104.721-53.993,100.963-57.457,94.727-57.457z M99.722-14.984c0,2.748-2.248,4.997-4.996,4.997H39.76
			c-2.75,0-4.997-2.249-4.997-4.997v-32.481c0-2.747,2.247-4.998,4.997-4.998h54.967c2.747,0,4.995,2.25,4.995,4.998V-14.984
			L99.722-14.984z"/>
		<path fill="#FFF7CC" d="M46.009-29.861c-0.081-0.562-1.218-2.047-1.252-2.613c-0.068-1.028,1.459-2.11,2.496-2.499h9.997
			c0-4.997-1.872-6.088-2.497-7.497c-0.922-2.059-1.171-3.59,0-4.995c1.429-1.719,4.942-3.264,4.996-2.498
			c0.387,5.569,1.547,8.251,3.105,9.353c0.932,0.662,1.754,1.238,2.184,2.249c2.657,6.196,3.681,8.169,4.705,8.387h2.498l0,0v12.489
			l-7.496,2.501c0,0-9.99,0-12.491,0c-1.007,0-4.066-1.924-4.456-2.779c-0.232-0.492,0.078-1.653-0.188-2.127
			c-0.391-0.698-2.051-1.58-2.047-2.533c0-0.68,0.864-1.856,0.798-2.533c-0.054-0.682-1.604-1.843-1.604-2.523
			C44.762-28.189,46.111-29.153,46.009-29.861z"/>
		<path fill="#FFF7CC" d="M74.736-17.485c0,0.884,1.49,2.501,2.501,2.501h2.501c1.008,0,2.495-1.616,2.495-2.501v-12.489
			c0-0.883-1.487-2.501-2.495-2.501h-2.501c-1.011,0-2.501,1.611-2.501,2.501V-17.485z"/>
	</g>
</g>
</svg>
