<?xml version="1.0" encoding="utf-8"?>
<!-- Generator: Adobe Illustrator 16.0.0, SVG Export Plug-In . SVG Version: 6.00 Build 0)  -->
<!DOCTYPE svg PUBLIC "-//W3C//DTD SVG 1.1//EN" "http://www.w3.org/Graphics/SVG/1.1/DTD/svg11.dtd">
<svg version="1.1" id="Layer_1" xmlns="http://www.w3.org/2000/svg" xmlns:xlink="http://www.w3.org/1999/xlink" x="0px" y="0px"
	 width="360px" height="360px" viewBox="0 0 360 360" enable-background="new 0 0 360 360" xml:space="preserve">
<g id="Layer_2">
	<circle fill="#64C2A5" cx="180" cy="180" r="162"/>
</g>
<g id="Layer_1_1_">
	<path fill="#3C4547" d="M264.38,254.609c-6.598-2.816-13.497-4.344-20.255-6.615c-9.012-3.024-17.773-6.737-26.029-11.442
		c-9.062-5.163-19.25-8.22-28.867-12.168c-0.003,0,1.784,2.207,4.576,5.062c0.707,0.707,1.505,1.438,2.32,2.209
		c0.845,0.746,1.763,1.486,2.702,2.232c0.948,0.737,1.972,1.426,3.042,2.064c0.513,0.348,1.065,0.639,1.619,0.922
		c0.552,0.298,1.095,0.605,1.684,0.823c1.103,0.554,2.348,0.917,3.429,1.318c1.309,0.341,2.572,0.774,3.724,1.04
		c2.364,0.599,4.618,1.065,6.526,1.254c0.927,0.045,1.828,0.104,2.485-0.041c0.672-0.175,1.036-0.254,1.013-0.63
		c-0.084-0.407-0.394-0.845-0.61-1.051c-0.229-0.236-0.354-0.36-0.354-0.36s0.168,0.057,0.485,0.159
		c0.163,0.047,0.359,0.128,0.581,0.27c0.236,0.107,0.476,0.322,0.71,0.652c0.086,0.18,0.172,0.429,0.191,0.687
		c-0.043,0.23-0.062,0.602-0.228,0.78c-0.278,0.498-0.708,0.78-1.141,1.046c-0.876,0.528-1.879,0.785-2.984,0.999
		c-1.093,0.189-2.287,0.315-3.526,0.284c-1.247,0-2.533-0.059-3.877-0.256c-1.376-0.191-2.684-0.396-3.988-0.692
		c-1.495-0.403-2.867-0.818-4.236-1.458c-0.694-0.277-1.333-0.658-1.978-1.02c-0.66-0.336-1.27-0.745-1.856-1.173
		c-1.209-0.801-2.251-1.783-3.244-2.718c-0.993-0.933-1.816-1.963-2.58-2.936c-0.755-0.978-1.376-1.967-1.906-2.891
		c-2.133-3.723-2.57-6.57-2.57-6.57c-2.319-0.952-3.315-4.876-4.206-7.033c-5.565-13.448-9.605-27.599-13.706-41.545
		c-3.675-12.483-7.183-25.012-10.674-37.546c-3.47-12.441-9.051-24.244-14.929-35.717c-5.333-10.417-11.007-21.086-18.319-30.274
		c0,0-38.337,17.317-39.885,46.995c0,0-3.092-1.235,0.931,8.659l10.202,28.133c0,0,7.109,20.713,7.419,38.337l1.236,42.049v37.4
		h4.635l7.421-73.272c0,0,2.474-25.042,14.843-27.209c0,0,4.945-4.018,8.037,15.147c3.393,18,5.268,36.522,9.324,54.333
		c1.984,8.73,6.439,17.739,11.356,25.127c8.882,13.338,26.175,18.994,41.293,19.618c15.259,0.631,31.929-0.877,46.108-6.84
		c5.099-2.147,27.661-12.963,22.542-20.582C271.065,257.502,267.19,255.812,264.38,254.609z M129.708,162.45
		c-2.385-2.217-5.085-4.861-7.91-7.759c-2.767-2.947-5.961-5.862-9.027-8.898c-1.511-1.539-3.024-3.078-4.515-4.595
		c-1.5-1.504-2.896-3.065-4.295-4.534c-2.837-2.881-5.477-5.587-7.665-8c-2.2-2.396-3.992-4.458-5.278-5.875
		c-1.264-1.435-1.96-2.288-1.96-2.288s0.936,0.576,2.527,1.631c1.606,1.043,3.815,2.628,6.384,4.658
		c1.291,1.004,2.692,2.09,4.132,3.29c1.443,1.196,3.011,2.413,4.524,3.79c1.485,1.396,3.065,2.793,4.594,4.297
		c1.534,1.495,3.1,3.01,4.661,4.527c1.524,1.552,3.052,3.104,4.554,4.631c1.553,1.48,2.853,3.158,4.176,4.712
		c2.625,3.137,5.005,6.124,6.977,8.737c3.981,5.19,6.318,8.884,6.318,8.884S134.437,166.917,129.708,162.45z"/>
</g>
</svg>
